<svg width="31" height="31" viewBox="0 0 31 31" fill="none" xmlns="http://www.w3.org/2000/svg">
<path d="M25.8893 4.79834H4.79431C4.2857 4.79834 3.79792 5.00056 3.43828 5.3605C3.07863 5.72045 2.87659 6.20864 2.87659 6.71768V23.9917C2.87659 24.5008 3.07863 24.989 3.43828 25.3489C3.79792 25.7089 4.2857 25.9111 4.79431 25.9111H25.8893C26.3979 25.9111 26.8857 25.7089 27.2453 25.3489C27.605 24.989 27.807 24.5008 27.807 23.9917V6.71768C27.807 6.20864 27.605 5.72045 27.2453 5.3605C26.8857 5.00056 26.3979 4.79834 25.8893 4.79834ZM4.79431 6.71768H25.8893V11.516H4.79431V6.71768ZM25.8893 23.9917H13.4241V13.4354H25.8893V23.9917Z" fill="white"/>
</svg>
