<svg width="20" height="26" viewBox="0 0 20 26" fill="none" xmlns="http://www.w3.org/2000/svg">
<path fill-rule="evenodd" clip-rule="evenodd" d="M0 3.86482C0 2.13836 1.20622 0.737183 2.69244 0.737183H6.53879C6.84483 0.737183 7.13833 0.878404 7.35473 1.12978C7.57113 1.38116 7.6927 1.7221 7.6927 2.0776C7.6927 2.4331 7.57113 2.77404 7.35473 3.02541C7.13833 3.27679 6.84483 3.41801 6.53879 3.41801H2.69244C2.59043 3.41801 2.4926 3.46508 2.42047 3.54888C2.34833 3.63267 2.30781 3.74632 2.30781 3.86482V22.6306C2.30781 22.8772 2.48013 23.0774 2.69244 23.0774H6.53879C6.84483 23.0774 7.13833 23.2186 7.35473 23.47C7.57113 23.7214 7.6927 24.0623 7.6927 24.4178C7.6927 24.7733 7.57113 25.1143 7.35473 25.3656C7.13833 25.617 6.84483 25.7582 6.53879 25.7582H2.69244C1.97836 25.7582 1.29353 25.4287 0.788599 24.8422C0.283668 24.2556 0 23.4601 0 22.6306V3.86482ZM16.0624 11.9073H7.30806C7.00203 11.9073 6.70853 12.0485 6.49213 12.2999C6.27573 12.5513 6.15416 12.8922 6.15416 13.2477C6.15416 13.6032 6.27573 13.9442 6.49213 14.1955C6.70853 14.4469 7.00203 14.5881 7.30806 14.5881H16.0624L13.0314 18.1089C12.9181 18.2317 12.8271 18.3796 12.7641 18.5441C12.701 18.7085 12.6671 18.886 12.6643 19.066C12.6616 19.2459 12.6901 19.4247 12.7482 19.5916C12.8062 19.7585 12.8926 19.9101 13.0021 20.0374C13.1117 20.1647 13.2422 20.2651 13.3859 20.3325C13.5296 20.3999 13.6835 20.433 13.8384 20.4298C13.9934 20.4266 14.1462 20.3872 14.2877 20.314C14.4293 20.2407 14.5566 20.1351 14.6623 20.0034L19.6625 14.1949C19.8786 13.9436 20 13.6029 20 13.2477C20 12.8925 19.8786 12.5518 19.6625 12.3005L14.6623 6.49203C14.5566 6.36033 14.4293 6.2547 14.2877 6.18144C14.1462 6.10818 13.9934 6.06879 13.8384 6.06561C13.6835 6.06244 13.5296 6.09554 13.3859 6.16296C13.2422 6.23037 13.1117 6.33072 13.0021 6.458C12.8926 6.58528 12.8062 6.7369 12.7482 6.90381C12.6901 7.07071 12.6616 7.24949 12.6643 7.42946C12.6671 7.60944 12.701 7.78694 12.7641 7.95136C12.8271 8.11578 12.9181 8.26376 13.0314 8.38648L16.0624 11.9073Z" fill="white"/>
</svg>
