<svg width="28" height="27" viewBox="0 0 28 27" fill="none" xmlns="http://www.w3.org/2000/svg">
<path d="M27.4629 10.9913C27.4331 10.8571 27.3749 10.731 27.2922 10.6213C27.2095 10.5116 27.1043 10.421 26.9835 10.3556L24.1313 8.7723C23.9795 8.46044 23.8117 8.16058 23.6279 7.87271L23.6758 4.61022C23.6769 4.47338 23.6498 4.33778 23.5962 4.21189C23.5426 4.086 23.4636 3.97253 23.3643 3.87855C21.9441 2.58983 20.2645 1.62052 18.4387 1.03586C18.3076 0.994945 18.1693 0.98234 18.0329 0.998881C17.8966 1.01542 17.7653 1.06073 17.6477 1.13182L14.8553 2.81105C14.5078 2.79905 14.1722 2.79905 13.8247 2.81105L11.0323 1.13182C10.9148 1.06073 10.7835 1.01542 10.6471 0.998881C10.5108 0.98234 10.3725 0.994945 10.2414 1.03586C8.4131 1.62096 6.73286 2.59477 5.31579 3.89055C5.21553 3.98129 5.13584 4.09247 5.0821 4.2166C5.02835 4.34074 5.00179 4.47495 5.00419 4.61022L5.06411 7.87271C4.87236 8.16058 4.70458 8.46044 4.5368 8.7723L1.6965 10.3556C1.57427 10.419 1.46778 10.509 1.38483 10.619C1.30188 10.729 1.24458 10.8562 1.21713 10.9913C0.809622 12.8645 0.809622 14.8035 1.21713 16.6767C1.2469 16.8108 1.3051 16.937 1.38781 17.0466C1.47051 17.1563 1.57578 17.2469 1.6965 17.3124L4.54879 18.8956C4.70169 19.2059 4.8738 19.5064 5.06411 19.7952L5.00419 23.0577C5.0031 23.1946 5.0302 23.3302 5.08381 23.456C5.13742 23.5819 5.21639 23.6954 5.31579 23.7894C6.73794 25.0754 8.41686 26.0444 10.2414 26.6321C10.3725 26.673 10.5108 26.6856 10.6471 26.6691C10.7835 26.6525 10.9148 26.6072 11.0323 26.5361L13.8247 24.8569H14.8553L17.6597 26.5361C17.8055 26.6321 17.9766 26.6822 18.1511 26.68C18.2485 26.6758 18.3451 26.6597 18.4387 26.6321C20.2669 26.047 21.9472 25.0732 23.3643 23.7774C23.4645 23.6866 23.5442 23.5755 23.5979 23.4513C23.6517 23.3272 23.6783 23.193 23.6758 23.0577L23.6279 19.7952C23.8077 19.5074 23.9755 19.2075 24.1432 18.8956L26.9955 17.3124C27.1145 17.2462 27.2178 17.1552 27.2985 17.0455C27.3792 16.9358 27.4352 16.81 27.4629 16.6767C27.8704 14.8035 27.8704 12.8645 27.4629 10.9913ZM19.6131 13.834C19.6131 14.8778 19.3039 15.8981 18.7245 16.766C18.145 17.6339 17.3215 18.3104 16.358 18.7098C15.3944 19.1092 14.3342 19.2138 13.3113 19.0101C12.2884 18.8065 11.3488 18.3039 10.6114 17.5658C9.8739 16.8277 9.37168 15.8873 9.16822 14.8636C8.96475 13.8398 9.06918 12.7787 9.46829 11.8143C9.8674 10.85 10.5433 10.0257 11.4104 9.44583C12.2776 8.86592 13.2971 8.5564 14.34 8.5564C15.7385 8.5564 17.0798 9.11243 18.0687 10.1022C19.0576 11.0919 19.6131 12.4343 19.6131 13.834Z" fill="#FEFEFE"/>
</svg>
